<svg width="30" height="30" viewBox="0 0 30 30" fill="none" xmlns="http://www.w3.org/2000/svg">
    <path d="M12.142 9.09549C12.142 7.87169 13.244 6.87988 14.6058 6.87988C15.9665 6.87988 17.0697 7.87169 17.0697 9.09549C17.0697 9.6697 16.8609 10.194 16.4989 10.5884C15.8064 11.3424 14.7705 12.1022 14.7705 13.0813V13.4107M14.7705 13.4107C15.6286 13.3971 16.4706 13.6438 17.1857 14.1183L25.808 19.93C27.323 20.9519 26.5191 23.12 24.6248 23.12H5.37564C3.50107 23.12 2.68442 20.9914 4.15995 19.9532L12.3914 14.1636C13.09 13.6785 13.9188 13.4156 14.7694 13.4096L14.7705 13.4107Z" stroke="#FCFCFC" stroke-width="0.8" stroke-linecap="round"/>
</svg>
