<svg width="30" height="30" viewBox="0 0 30 30" fill="none" xmlns="http://www.w3.org/2000/svg">
    <path d="M15 18c2.5 0 4.8-1.6 6-4 1.2-2.4 0.5-5.2-1.6-5.2-1.6 0-2.2 1.5-2.8 3-0.3 0.8-0.9 1.2-1.6 1.2s-1.3-0.4-1.6-1.2c-0.6-1.5-1.2-3-2.8-3-2.1 0-2.8 2.8-1.6 5.2 1.2 2.4 3.5 4 6 4z" stroke="#FCFCFC" stroke-width="0.8" stroke-linecap="round" stroke-linejoin="round" fill="none"/>
    <ellipse cx="11.3" cy="9.3" rx="1.6" ry="2.1" stroke="#FCFCFC" stroke-width="0.8" stroke-linecap="round" fill="none"/>
    <ellipse cx="18.7" cy="9.3" rx="1.6" ry="2.1" stroke="#FCFCFC" stroke-width="0.8" stroke-linecap="round" fill="none"/>
    <ellipse cx="13.7" cy="6.6" rx="1.5" ry="2" stroke="#FCFCFC" stroke-width="0.8" stroke-linecap="round" fill="none"/>
</svg>
